<?xml version="1.0" encoding="UTF-8" standalone="no"?>
<!DOCTYPE svg PUBLIC "-//W3C//DTD SVG 1.1//EN" "http://www.w3.org/Graphics/SVG/1.1/DTD/svg11.dtd">
<svg width="100%" height="100%" viewBox="0 0 250 250" version="1.1" xmlns="http://www.w3.org/2000/svg"
     xml:space="preserve"
     style="fill-rule:evenodd;clip-rule:evenodd;stroke-linecap:round;stroke-linejoin:round;stroke-miterlimit:1.5;">
    <g transform="matrix(1,0,0,1,-0.354733,9.88798)">
        <g transform="matrix(0.878721,0,0,0.878721,-0.0203305,11.1762)">
            <rect x="41.925" y="86.065" width="30.411" height="30.411" style="fill:rgb(250,250,250);"/>
        </g>
        <g transform="matrix(0.878721,0,0,0.878721,41.0819,11.1762)">
            <rect x="41.925" y="86.065" width="30.411" height="30.411" style="fill:rgb(250,250,250);"/>
        </g>
        <g transform="matrix(0.878721,0,0,0.878721,82.1842,11.1762)">
            <rect x="41.925" y="86.065" width="30.411" height="30.411" style="fill:rgb(250,250,250);"/>
        </g>
        <g transform="matrix(0.878721,0,0,0.878721,123.286,11.1762)">
            <rect x="41.925" y="86.065" width="30.411" height="30.411" style="fill:rgb(250,250,250);"/>
        </g>
        <g transform="matrix(0.878721,0,0,0.878721,-0.0203305,54.665)">
            <rect x="41.925" y="86.065" width="30.411" height="30.411" style="fill:rgb(250,250,250);"/>
        </g>
        <g transform="matrix(0.878721,0,0,0.878721,41.0819,54.665)">
            <rect x="41.925" y="86.065" width="30.411" height="30.411" style="fill:rgb(250,250,250);"/>
        </g>
        <g transform="matrix(0.878721,0,0,0.878721,82.1842,54.665)">
            <rect x="41.925" y="86.065" width="30.411" height="30.411" style="fill:rgb(250,250,250);"/>
        </g>
        <g transform="matrix(0.878721,0,0,0.878721,1.92846,2.79332)">
            <g transform="matrix(1,0,0,1,0.238637,0.410707)">
                <path
                    d="M84.33,26.007C84.33,24.139 82.812,22.621 80.944,22.621L74.172,22.621C72.303,22.621 70.786,24.139 70.786,26.007L70.786,57.075C70.786,58.944 72.303,60.461 74.172,60.461L80.944,60.461C82.812,60.461 84.33,58.944 84.33,57.075L84.33,26.007Z"
                    style="fill:rgb(250,250,250);"/>
            </g>
            <g transform="matrix(1,0,0,1,94.7974,0.410707)">
                <path
                    d="M84.33,26.007C84.33,24.139 82.812,22.621 80.944,22.621L74.172,22.621C72.303,22.621 70.786,24.139 70.786,26.007L70.786,57.075C70.786,58.944 72.303,60.461 74.172,60.461L80.944,60.461C82.812,60.461 84.33,58.944 84.33,57.075L84.33,26.007Z"
                    style="fill:rgb(250,250,250);"/>
            </g>
        </g>
        <g transform="matrix(1.10477,0,0,1.10477,-1.72353,-2.41311)">
            <path
                d="M140.311,168.051L27.521,168.051C21.411,168.051 16.45,163.09 16.45,156.979L16.45,50.418C16.45,44.308 21.411,39.347 27.521,39.347L57.65,39.347L57.65,51.061C57.65,53.148 59.344,54.841 61.43,54.841L68.991,54.841C71.077,54.841 72.771,53.148 72.771,51.061L72.771,39.347L132.808,39.347L132.808,51.061C132.808,53.148 134.502,54.841 136.588,54.841L144.149,54.841C146.235,54.841 147.929,53.148 147.929,51.061L147.929,39.347L182.652,39.347C188.762,39.347 193.723,44.308 193.723,50.418L193.723,117.373C191.823,116.316 189.826,115.416 187.747,114.688L187.747,63.506L22.427,63.506L22.427,161.558L137.836,161.558C138.468,163.812 139.3,165.984 140.311,168.051Z"
                style="fill:rgb(250,250,250);"/>
        </g>
        <g transform="matrix(1.10477,0,0,1.10477,-1.72353,-2.41311)">
            <path d="M152.031,120.12C150.031,121.605 148.178,123.28 146.502,125.116L146.502,120.12L152.031,120.12Z"
                  style="fill:rgb(250,250,250);"/>
        </g>
        <g transform="matrix(1.10477,0,0,1.10477,-6.12809,-20.5667)">
            <circle cx="178.992" cy="167.561" r="38.598"
                    style="fill:rgb(250,250,250);fill-opacity:0;stroke:rgb(250,250,250);stroke-width:5.66px;"/>
        </g>
        <g transform="matrix(1.86606,0,0,1.23105,-129.843,-17.8967)">
            <path
                d="M175.006,124.693C175.006,123.548 174.392,122.618 173.636,122.618L170.898,122.618C170.142,122.618 169.529,123.548 169.529,124.693L169.529,149.054C169.529,150.199 170.142,151.129 170.898,151.129L173.636,151.129C174.392,151.129 175.006,150.199 175.006,149.054L175.006,124.693Z"
                style="fill:rgb(250,250,250);"/>
        </g>
        <g transform="matrix(-0.532795,1.6756,-1.027,-0.326559,434.344,-75.8028)">
            <path
                d="M175.006,124.852C175.006,123.619 174.392,122.618 173.636,122.618L170.898,122.618C170.142,122.618 169.529,123.619 169.529,124.852L169.529,148.896C169.529,150.128 170.142,151.129 170.898,151.129L173.636,151.129C174.392,151.129 175.006,150.128 175.006,148.896L175.006,124.852Z"
                style="fill:rgb(250,250,250);"/>
        </g>
    </g>
</svg>
