<?xml version="1.0" encoding="UTF-8" standalone="no"?>
<!DOCTYPE svg PUBLIC "-//W3C//DTD SVG 1.1//EN" "http://www.w3.org/Graphics/SVG/1.1/DTD/svg11.dtd">
<svg width="100%" height="100%" viewBox="0 0 250 250" version="1.1" xmlns="http://www.w3.org/2000/svg"
     xml:space="preserve"
     style="fill-rule:evenodd;clip-rule:evenodd;stroke-linejoin:round;stroke-miterlimit:2;">
    <g transform="matrix(0.953468,0,0,0.954003,-15.3135,2.15926)">
        <g transform="matrix(0.880708,0,0,0.880214,18.7437,3.22226)">
            <path
                d="M129.488,216.991L25.945,216.991L25.945,107.165L223.571,107.165L223.571,216.991L208.291,216.991L208.291,143.351L129.488,143.351L129.488,216.991ZM99.04,143.351L52.98,143.351L52.98,186.602L99.04,186.602L99.04,143.351Z"
                style="fill:rgb(250,250,250);"/>
        </g>
        <g transform="matrix(0.880708,0,0,0.880214,18.7437,3.22226)">
            <path
                d="M24.93,112.205C22.179,112.205 19.581,110.943 17.88,108.78C16.179,106.616 15.565,103.792 16.212,101.117L32.793,32.652L217.207,32.652L233.788,101.117C234.435,103.792 233.821,106.616 232.12,108.78C230.419,110.943 227.821,112.205 225.07,112.205L24.93,112.205ZM98.726,39.603L77.124,39.603L71.275,94.269C71.045,96.419 73.153,101.791 75.65,103.519C78.147,105.247 83.452,105.807 86.259,104.639C89.066,103.47 92.263,98.658 92.493,96.509L98.726,39.603ZM152.417,39.523L174.019,39.523L179.867,94.188C180.097,96.338 177.99,101.71 175.493,103.438C172.995,105.167 167.691,105.727 164.884,104.558C162.076,103.39 158.879,98.578 158.649,96.428L152.417,39.523ZM60.164,39.422L38.701,39.422L29.051,93.144C28.678,95.275 30.411,100.819 32.777,102.751C35.144,104.683 40.379,105.675 43.248,104.735C46.117,103.795 49.619,99.243 49.992,97.112L60.164,39.422ZM190.978,39.342L212.442,39.342L222.091,93.063C222.465,95.194 220.731,100.738 218.365,102.67C215.999,104.602 210.764,105.594 207.895,104.654C205.026,103.715 201.524,99.162 201.151,97.031L190.978,39.342ZM137.471,39.422L116.124,39.422L116.124,94.741C116.124,96.902 118.793,102.021 121.461,103.477C124.129,104.933 129.466,104.933 132.134,103.477C134.802,102.021 137.471,96.902 137.471,94.741L137.471,39.422Z"
                style="fill:rgb(250,250,250);"/>
        </g>
    </g>
    <g transform="matrix(0.520387,-0.32103,0.32103,0.520387,68.4077,149.59)">
        <path
            d="M191.598,178.46C191.598,186.694 184.913,193.379 176.679,193.379L118.386,193.379C112.854,193.379 108.021,190.361 105.445,185.883L61.147,121.714C59.31,119.053 59.979,115.402 62.64,113.565L72.282,106.909C74.943,105.072 78.595,105.741 80.432,108.402L102.467,140.322L102.467,44.321C102.467,41.35 104.88,38.938 107.851,38.938L118.617,38.938C121.588,38.938 124,41.35 124,44.321L124,133.705L125,133.705L125,83.295C125,80.324 127.412,77.912 130.383,77.912L141.149,77.912C144.12,77.912 146.533,80.324 146.533,83.295L146.533,133.705L147.533,133.705L147.533,98.122C147.533,95.151 149.945,92.739 152.916,92.739L163.682,92.739C166.653,92.739 169.065,95.151 169.065,98.122L169.065,133.705L170.065,133.705L170.065,109.882C170.065,106.911 172.477,104.499 175.448,104.499L186.214,104.499C189.186,104.499 191.598,106.911 191.598,109.882L191.598,178.46Z"
            style="fill:white;"/>
    </g>
</svg>
