<?xml version="1.0" encoding="UTF-8" standalone="no"?>
<!DOCTYPE svg PUBLIC "-//W3C//DTD SVG 1.1//EN" "http://www.w3.org/Graphics/SVG/1.1/DTD/svg11.dtd">
<svg width="100%" height="100%" viewBox="0 0 299 69" version="1.1" xmlns="http://www.w3.org/2000/svg" xmlns:xlink="http://www.w3.org/1999/xlink" xml:space="preserve" xmlns:serif="http://www.serif.com/" style="fill-rule:evenodd;clip-rule:evenodd;stroke-linejoin:round;stroke-miterlimit:2;">
    <g>
        <g>
            <path d="M0,0.48C0.352,0.417 0.744,0.369 1.176,0.335C1.607,0.305 2,0.289 2.352,0.289C2.704,0.289 3.096,0.305 3.528,0.336C3.96,0.369 4.352,0.417 4.704,0.48L4.704,28.224C4.704,29.12 4.783,29.825 4.943,30.335C5.103,30.848 5.32,31.24 5.591,31.512C5.862,31.784 6.183,31.96 6.551,32.04C6.919,32.12 7.311,32.159 7.728,32.159C8.015,32.159 8.343,32.143 8.711,32.112C9.079,32.08 9.391,32.032 9.648,31.967C9.935,33.087 10.08,34.303 10.08,35.615C9.631,35.774 9.088,35.879 8.447,35.927C7.806,35.975 7.216,36 6.672,36C5.743,36 4.879,35.889 4.08,35.664C3.279,35.441 2.575,35.072 1.968,34.56C1.36,34.048 0.879,33.36 0.528,32.496C0.176,31.633 0,30.561 0,29.281L0,0.48Z" style="fill:rgb(102,51,153);fill-rule:nonzero;"/>
            <path d="M24.384,36.24C22.463,36.24 20.783,35.912 19.344,35.256C17.905,34.602 16.703,33.697 15.744,32.545C14.783,31.393 14.071,30.033 13.607,28.465C13.143,26.897 12.912,25.201 12.912,23.377C12.912,21.553 13.143,19.857 13.607,18.289C14.071,16.721 14.783,15.36 15.744,14.209C16.703,13.057 17.904,12.145 19.344,11.473C20.784,10.801 22.463,10.465 24.384,10.465C26.304,10.465 27.984,10.801 29.424,11.473C30.863,12.145 32.064,13.057 33.024,14.209C33.984,15.36 34.696,16.721 35.161,18.289C35.624,19.857 35.856,21.553 35.856,23.377C35.856,25.201 35.624,26.897 35.161,28.465C34.696,30.033 33.984,31.393 33.024,32.545C32.064,33.697 30.864,34.602 29.424,35.256C27.983,35.912 26.304,36.24 24.384,36.24ZM24.384,32.449C26.592,32.449 28.224,31.648 29.28,30.049C30.337,28.449 30.864,26.225 30.864,23.377C30.864,20.529 30.337,18.313 29.28,16.729C28.224,15.145 26.592,14.353 24.384,14.353C22.176,14.353 20.551,15.145 19.512,16.729C18.471,18.313 17.951,20.53 17.951,23.377C17.951,26.224 18.471,28.449 19.512,30.049C20.551,31.648 22.176,32.449 24.384,32.449Z" style="fill:rgb(102,51,153);fill-rule:nonzero;"/>
            <path d="M41.902,0.48C42.254,0.417 42.646,0.369 43.079,0.335C43.511,0.304 43.902,0.288 44.255,0.288C44.607,0.288 45.006,0.304 45.455,0.335C45.902,0.368 46.303,0.416 46.654,0.48L46.654,35.664C46.302,35.728 45.902,35.776 45.455,35.809C45.006,35.84 44.606,35.857 44.255,35.857C43.902,35.857 43.511,35.84 43.079,35.809C42.646,35.777 42.254,35.729 41.902,35.664L41.902,0.48ZM47.951,22.896L55.775,11.041C56.19,10.977 56.606,10.929 57.023,10.896C57.438,10.865 57.871,10.848 58.318,10.848C58.798,10.848 59.255,10.865 59.687,10.896C60.119,10.928 60.558,10.976 61.006,11.041L53.183,22.561L62.351,35.665C61.902,35.729 61.47,35.777 61.054,35.81C60.638,35.841 60.206,35.858 59.758,35.858C59.31,35.858 58.862,35.841 58.414,35.81C57.966,35.778 57.518,35.73 57.069,35.665L47.951,22.896Z" style="fill:rgb(102,51,153);fill-rule:nonzero;"/>
            <path d="M79.535,19.44C79.535,17.552 79.056,16.241 78.096,15.503C77.137,14.77 75.744,14.4 73.92,14.4C72.799,14.4 71.752,14.489 70.775,14.664C69.798,14.841 68.847,15.072 67.92,15.36C67.311,14.304 67.008,13.041 67.008,11.568C68.096,11.216 69.295,10.944 70.608,10.752C71.921,10.561 73.184,10.465 74.4,10.465C77.6,10.465 80.032,11.194 81.696,12.649C83.36,14.106 84.192,16.434 84.192,19.633L84.192,35.041C83.071,35.297 81.712,35.561 80.112,35.832C78.512,36.103 76.88,36.24 75.216,36.24C73.649,36.24 72.233,36.096 70.968,35.808C69.704,35.52 68.632,35.056 67.753,34.415C66.872,33.776 66.192,32.96 65.712,31.968C65.233,30.976 64.993,29.777 64.993,28.368C64.993,26.992 65.272,25.784 65.833,24.743C66.392,23.704 67.152,22.84 68.112,22.151C69.072,21.463 70.176,20.952 71.425,20.616C72.674,20.28 73.985,20.112 75.361,20.112C76.384,20.112 77.224,20.135 77.881,20.183C78.538,20.231 79.09,20.287 79.537,20.351L79.537,19.44L79.535,19.44ZM79.535,24.097C79.056,24.034 78.447,23.969 77.711,23.905C76.975,23.842 76.352,23.809 75.84,23.809C73.856,23.809 72.343,24.177 71.304,24.913C70.264,25.649 69.744,26.77 69.744,28.273C69.744,29.233 69.919,29.985 70.271,30.529C70.623,31.074 71.063,31.489 71.591,31.777C72.118,32.065 72.702,32.241 73.343,32.305C73.983,32.369 74.591,32.401 75.167,32.401C75.903,32.401 76.663,32.362 77.446,32.282C78.231,32.202 78.926,32.082 79.534,31.921L79.534,24.097L79.535,24.097Z" style="fill:rgb(102,51,153);fill-rule:nonzero;"/>
            <path d="M91.248,0.48C91.6,0.417 91.99,0.369 92.424,0.335C92.856,0.304 93.246,0.288 93.6,0.288C93.952,0.288 94.344,0.304 94.776,0.335C95.208,0.368 95.6,0.416 95.952,0.48L95.952,28.224C95.952,29.12 96.032,29.825 96.192,30.335C96.352,30.848 96.567,31.24 96.84,31.512C97.111,31.784 97.432,31.96 97.799,32.04C98.166,32.12 98.559,32.159 98.975,32.159C99.264,32.159 99.592,32.143 99.959,32.112C100.326,32.08 100.639,32.032 100.895,31.967C101.184,33.087 101.329,34.303 101.329,35.615C100.88,35.774 100.335,35.879 99.696,35.927C99.055,35.977 98.463,36 97.92,36C96.99,36 96.127,35.889 95.328,35.664C94.527,35.441 93.822,35.072 93.215,34.56C92.608,34.048 92.127,33.36 91.776,32.496C91.422,31.633 91.249,30.56 91.249,29.281L91.249,0.48L91.248,0.48Z" style="fill:rgb(102,51,153);fill-rule:nonzero;"/>
            <path d="M109.199,24.528C109.262,27.216 109.959,29.184 111.287,30.432C112.615,31.68 114.574,32.304 117.166,32.304C119.439,32.304 121.6,31.904 123.646,31.104C123.902,31.583 124.111,32.168 124.271,32.856C124.429,33.544 124.527,34.224 124.558,34.896C123.501,35.345 122.341,35.679 121.078,35.904C119.814,36.128 118.414,36.24 116.879,36.24C114.639,36.24 112.719,35.928 111.119,35.304C109.517,34.68 108.199,33.8 107.158,32.663C106.119,31.528 105.359,30.184 104.879,28.632C104.399,27.08 104.158,25.376 104.158,23.52C104.158,21.697 104.39,19.992 104.855,18.408C105.318,16.824 106.031,15.449 106.99,14.281C107.951,13.113 109.158,12.185 110.615,11.496C112.07,10.808 113.791,10.465 115.775,10.465C117.47,10.465 118.959,10.752 120.238,11.328C121.517,11.904 122.592,12.697 123.455,13.705C124.318,14.713 124.975,15.912 125.424,17.305C125.871,18.698 126.096,20.209 126.096,21.84C126.096,22.289 126.078,22.761 126.047,23.256C126.014,23.753 125.983,24.177 125.951,24.528L109.199,24.528ZM121.391,20.977C121.391,20.081 121.272,19.225 121.032,18.409C120.792,17.594 120.438,16.882 119.975,16.273C119.51,15.666 118.918,15.177 118.2,14.809C117.479,14.442 116.624,14.256 115.632,14.256C113.679,14.256 112.183,14.85 111.144,16.033C110.105,17.216 109.472,18.865 109.248,20.976L121.391,20.976L121.391,20.977Z" style="fill:rgb(102,51,153);fill-rule:nonzero;"/>
            <path d="M132.334,11.041C132.688,10.977 133.023,10.929 133.344,10.896C133.662,10.865 133.998,10.848 134.352,10.848C134.704,10.848 135.055,10.865 135.407,10.896C135.759,10.928 136.079,10.976 136.368,11.041C136.464,11.52 136.559,12.152 136.655,12.937C136.751,13.722 136.8,14.385 136.8,14.929C137.472,13.841 138.361,12.897 139.464,12.097C140.567,11.297 141.984,10.897 143.712,10.897C143.968,10.897 144.232,10.905 144.503,10.92C144.774,10.938 145.009,10.961 145.2,10.992C145.263,11.281 145.311,11.585 145.345,11.904C145.376,12.224 145.392,12.56 145.392,12.912C145.392,13.297 145.369,13.697 145.32,14.113C145.273,14.529 145.216,14.928 145.152,15.312C144.896,15.249 144.632,15.216 144.361,15.216L143.713,15.216C142.85,15.216 142.025,15.335 141.24,15.575C140.457,15.815 139.752,16.24 139.129,16.847C138.504,17.455 138.008,18.287 137.641,19.343C137.274,20.399 137.088,21.76 137.088,23.422L137.088,35.662C136.736,35.726 136.346,35.774 135.912,35.807C135.48,35.838 135.088,35.855 134.736,35.855C134.384,35.855 133.992,35.838 133.56,35.807C133.128,35.775 132.72,35.727 132.335,35.662L132.335,11.041L132.334,11.041Z" style="fill:rgb(102,51,153);fill-rule:nonzero;"/>
            <path d="M145.727,35.664C145.663,35.217 145.608,34.776 145.559,34.345C145.512,33.912 145.487,33.473 145.487,33.025C145.487,32.577 145.512,32.122 145.559,31.657C145.608,31.194 145.663,30.737 145.727,30.29C146.176,30.226 146.616,30.178 147.047,30.145C147.479,30.114 147.918,30.097 148.367,30.097C148.814,30.097 149.262,30.114 149.711,30.145C150.158,30.177 150.607,30.225 151.055,30.29C151.119,30.737 151.176,31.186 151.223,31.634C151.272,32.082 151.295,32.53 151.295,32.978C151.295,33.427 151.272,33.874 151.223,34.322C151.176,34.771 151.119,35.218 151.055,35.666C150.608,35.73 150.168,35.778 149.735,35.811C149.303,35.842 148.864,35.859 148.417,35.859C147.968,35.859 147.521,35.842 147.071,35.811C146.623,35.776 146.176,35.729 145.727,35.664Z" style="fill:rgb(102,51,153);fill-rule:nonzero;"/>
            <path d="M157.822,0.48C158.174,0.417 158.566,0.369 159,0.335C159.432,0.304 159.822,0.288 160.176,0.288C160.528,0.288 160.926,0.304 161.375,0.335C161.822,0.368 162.223,0.416 162.574,0.48L162.574,35.664C162.222,35.728 161.822,35.776 161.375,35.809C160.926,35.84 160.527,35.857 160.176,35.857C159.822,35.857 159.432,35.84 159,35.809C158.566,35.777 158.174,35.729 157.822,35.664L157.822,0.48ZM163.871,22.896L171.695,11.041C172.111,10.977 172.527,10.929 172.943,10.896C173.359,10.865 173.791,10.848 174.238,10.848C174.718,10.848 175.176,10.865 175.607,10.896C176.039,10.928 176.478,10.976 176.927,11.041L169.103,22.561L178.27,35.665C177.821,35.729 177.389,35.777 176.973,35.81C176.557,35.841 176.125,35.858 175.678,35.858C175.229,35.858 174.782,35.841 174.334,35.81C173.885,35.778 173.438,35.73 172.988,35.665L163.871,22.896Z" style="fill:rgb(102,51,153);fill-rule:nonzero;"/>
            <path d="M236.494,14.785L232.463,14.785C232.334,14.273 232.272,13.648 232.272,12.912C232.272,12.209 232.335,11.585 232.463,11.041L236.494,11.041L236.494,9.313C236.494,6.274 237.254,3.961 238.775,2.377C240.294,0.793 242.509,0 245.423,0C246.222,0 246.925,0.041 247.534,0.121C248.141,0.201 248.718,0.32 249.263,0.48C249.199,1.281 249.111,1.968 248.997,2.544C248.886,3.12 248.733,3.712 248.542,4.319C248.222,4.256 247.847,4.183 247.413,4.103C246.981,4.024 246.462,3.983 245.854,3.983C245.149,3.983 244.516,4.055 243.958,4.2C243.397,4.344 242.917,4.616 242.519,5.015C242.119,5.415 241.806,5.975 241.581,6.696C241.358,7.415 241.245,8.336 241.245,9.456L241.245,11.04L247.534,11.04C247.63,11.681 247.679,12.335 247.679,13.008C247.679,13.616 247.63,14.208 247.534,14.784L241.245,14.784L241.245,35.663C240.893,35.727 240.501,35.775 240.069,35.808C239.637,35.839 239.245,35.856 238.893,35.856C238.541,35.856 238.141,35.839 237.694,35.808C237.245,35.776 236.844,35.728 236.493,35.663L236.493,14.785L236.494,14.785Z" style="fill:rgb(102,51,153);fill-rule:nonzero;"/>
            <path d="M254.974,24.528C255.038,27.216 255.734,29.184 257.062,30.432C258.39,31.68 260.351,32.304 262.943,32.304C265.214,32.304 267.375,31.904 269.422,31.104C269.678,31.583 269.887,32.168 270.047,32.856C270.207,33.544 270.303,34.224 270.334,34.896C269.279,35.345 268.119,35.679 266.855,35.904C265.589,36.128 264.191,36.24 262.654,36.24C260.414,36.24 258.494,35.928 256.894,35.304C255.294,34.68 253.974,33.8 252.935,32.663C251.894,31.528 251.134,30.184 250.654,28.632C250.175,27.079 249.935,25.376 249.935,23.52C249.935,21.697 250.167,19.992 250.63,18.408C251.095,16.824 251.806,15.449 252.767,14.281C253.726,13.113 254.935,12.185 256.39,11.496C257.847,10.808 259.566,10.465 261.55,10.465C263.245,10.465 264.734,10.752 266.015,11.328C267.294,11.904 268.367,12.697 269.23,13.705C270.095,14.713 270.75,15.912 271.199,17.305C271.646,18.698 271.871,20.209 271.871,21.84C271.871,22.289 271.853,22.761 271.822,23.256C271.791,23.753 271.758,24.177 271.726,24.528L254.974,24.528ZM267.166,20.977C267.166,20.081 267.047,19.225 266.807,18.409C266.567,17.594 266.215,16.882 265.75,16.273C265.287,15.666 264.695,15.177 263.975,14.809C263.256,14.442 262.399,14.256 261.409,14.256C259.456,14.256 257.96,14.85 256.921,16.033C255.88,17.217 255.247,18.865 255.025,20.976L267.166,20.976L267.166,20.977Z" style="fill:rgb(102,51,153);fill-rule:nonzero;"/>
            <path d="M294.004,35.691L293.951,21.36C293.951,19.85 293.796,17.707 292.894,16.344C291.112,13.652 286.702,14.612 284.879,16.704C283.311,18.503 282.861,20.871 282.861,23.183L282.861,35.662C282.06,35.808 281.22,35.878 280.381,35.873C279.612,35.867 278.844,35.797 278.109,35.662L278.109,11.041C279.115,10.859 280.138,10.796 281.157,10.896C281.487,10.928 281.969,10.758 282.141,11.041C282.344,11.374 282.573,14.709 282.573,15.024C285.06,10.797 289.621,9.867 294.116,11.07C294.841,11.264 296.264,12.246 296.684,12.888C298.314,15.38 298.702,16.983 298.702,20.064L298.461,35.705C298.461,35.705 297.435,35.89 296.306,35.903C295.232,35.916 294.004,35.691 294.004,35.691Z" style="fill:rgb(102,51,153);fill-rule:nonzero;"/>
            <path d="M206.974,11.041C207.326,10.977 207.726,10.929 208.175,10.896C208.622,10.865 209.007,10.848 209.325,10.848C209.679,10.848 210.077,10.865 210.526,10.896C210.973,10.928 211.374,10.976 211.725,11.041L211.725,24.528C211.725,26.064 211.87,27.336 212.157,28.344C212.446,29.352 212.878,30.144 213.454,30.72C214.03,31.296 214.733,31.697 215.565,31.919C216.397,32.144 217.358,32.255 218.446,32.255C220.077,32.255 221.469,32.08 222.622,31.728L222.622,11.041C222.974,10.977 223.366,10.929 223.798,10.896C224.23,10.865 224.622,10.848 224.974,10.848C225.326,10.848 225.718,10.865 226.15,10.896C226.584,10.928 226.974,10.976 227.326,11.041L227.326,34.896C226.207,35.216 224.871,35.52 223.318,35.808C221.765,36.096 220.158,36.24 218.494,36.24C216.928,36.24 215.447,36.103 214.055,35.832C212.664,35.561 211.44,35.01 210.383,34.177C209.326,33.345 208.494,32.178 207.887,30.672C207.28,29.169 206.975,27.186 206.975,24.721L206.975,11.041L206.974,11.041Z" style="fill:rgb(102,51,153);fill-rule:nonzero;"/>
            <path d="M195.455,19.44C195.455,17.552 194.975,16.241 194.016,15.503C193.055,14.769 191.664,14.399 189.84,14.399C188.719,14.399 187.672,14.488 186.695,14.663C185.718,14.84 184.767,15.071 183.84,15.359C183.231,14.303 182.928,13.04 182.928,11.567C184.016,11.215 185.215,10.943 186.528,10.751C187.841,10.56 189.104,10.464 190.319,10.464C193.52,10.464 195.952,11.193 197.616,12.648C199.28,14.105 200.112,16.433 200.112,19.632L200.112,35.04C198.991,35.296 197.632,35.56 196.032,35.831C194.432,36.102 192.8,36.239 191.136,36.239C189.568,36.239 188.152,36.095 186.888,35.807C185.624,35.519 184.552,35.055 183.673,34.414C182.792,33.775 182.112,32.959 181.632,31.967C181.152,30.975 180.913,29.776 180.913,28.367C180.913,26.991 181.192,25.783 181.753,24.742C182.312,23.703 183.071,22.839 184.032,22.15C184.991,21.462 186.096,20.951 187.345,20.615C188.594,20.279 189.904,20.111 191.281,20.111C192.304,20.111 193.144,20.134 193.801,20.182C194.458,20.23 195.008,20.286 195.457,20.35L195.457,19.44L195.455,19.44ZM195.455,24.097C194.975,24.034 194.367,23.969 193.631,23.905C192.895,23.842 192.272,23.809 191.76,23.809C189.776,23.809 188.262,24.177 187.223,24.913C186.184,25.649 185.664,26.77 185.664,28.273C185.664,29.233 185.838,29.985 186.191,30.529C186.543,31.074 186.982,31.489 187.511,31.777C188.038,32.065 188.622,32.241 189.263,32.305C189.902,32.369 190.511,32.401 191.087,32.401C191.821,32.401 192.581,32.362 193.366,32.282C194.149,32.202 194.846,32.082 195.454,31.921L195.454,24.097L195.455,24.097Z" style="fill:rgb(102,51,153);fill-rule:nonzero;"/>
            <g transform="matrix(0.818213,-0.191921,0.25222,1.07529,112.851,6.865)">
                <path d="M94.718,36.819C95.183,36.931 95.539,37.184 95.718,37.53L101.617,50.189L98.813,50.946L93.265,39.04L88.87,39.04L83.323,50.946L80.519,50.189L86.418,37.53C87.182,36.053 91.887,36.293 94.718,36.819Z" style="fill:rgb(171,168,168);"/>
            </g>
            <path d="M195.454,28.813C196.779,28.426 198.396,28.266 199.636,28.277C199.806,28.29 199.966,28.333 200.112,28.403L200.112,32.662L199.008,30.945L195.454,31.778L195.454,28.813Z" style="fill:rgb(102,51,153);fill-rule:nonzero;"/>
            <g transform="matrix(0.973576,-0.228363,0.228363,0.973576,98.5868,14.8399)">
                <g transform="matrix(1,0,0,1,0.109461,0)">
                    <path d="M111.292,52.179C111.292,51.611 110.831,51.149 110.263,51.149L74.005,51.001C73.437,51.001 72.976,51.462 72.976,52.03L74.825,71.404C74.825,71.972 75.286,72.433 75.854,72.433L108.447,72.433C109.015,72.433 109.476,71.972 109.476,71.404L111.292,52.179Z" style="fill:rgb(102,51,153);"/>
                </g>
                <g transform="matrix(0.993762,0,0,1.35494,0.6963,-18.0054)">
                    <path d="M111.616,51.119C111.616,50.903 111.377,50.728 111.082,50.728L73.162,50.728C72.867,50.728 72.628,50.903 72.628,51.119L72.628,51.902C72.628,52.119 72.867,52.294 73.162,52.294L111.082,52.294C111.377,52.294 111.616,52.119 111.616,51.902L111.616,51.119Z" style="fill:rgb(102,51,153);"/>
                </g>
                <g transform="matrix(1,0,0,1,0.0926783,0)">
                    <g transform="matrix(1,0,0,0.389082,5.34872,32.2853)">
                        <ellipse cx="79.489" cy="47.542" rx="2.343" ry="2.188" style="fill:rgb(102,51,153);"/>
                    </g>
                    <g transform="matrix(1,0,0,0.389082,19.9751,32.2853)">
                        <ellipse cx="79.489" cy="47.542" rx="2.343" ry="2.188" style="fill:rgb(102,51,153);"/>
                    </g>
                </g>
            </g>
        </g>
    </g>
</svg>
