<?xml version="1.0" encoding="UTF-8"?>
<svg xmlns="http://www.w3.org/2000/svg" viewBox="0 0 50 50" version="1.1">
  <path
    d="M24.426 3c-1.363.008-2.73.09-4.11.258-2.636.324-5.25.863-7.757 2.015-3.989 1.832-6.817 4.942-7.637 9.461a59.512 59.512 0 0 0-.79 5.786c-.308 3.777-.116 7.566.954 11.289.844 2.933 2.398 5.57 5.121 7.28 1.152.724 2.672 1.075 3.465 1.442.223.106.277.168.289.184.012.012.043.039.039.273-.027 2.39 0 7.016 0 7.016l.004.996h1.785l.29-.281s4.534-4.364 6.175-6.16c.297-.32.45-.5.48-.52.028-.02-.02-.031.286-.039 2.152-.043 4.3-.125 6.449-.242 2.832-.156 5.718-.426 8.496-1.586 2.418-1.012 4.437-2.664 5.66-5.14 1.25-2.54 1.918-5.231 2.168-8.016.414-4.637.27-9.282-1.012-13.86-.754-2.683-2.27-4.953-4.593-6.554-2.782-1.915-5.918-2.633-8.989-3.09a46.484 46.484 0 0 0-5.41-.496c-.453-.012-.906-.02-1.363-.016zm1.308 2.016c1.723.046 3.446.214 5.172.472 2.961.442 5.754 1.114 8.149 2.762 1.941 1.336 3.152 3.14 3.8 5.441 1.196 4.282 1.348 8.668.946 13.149-.23 2.582-.844 5.015-1.973 7.308-.996 2.024-2.55 3.309-4.637 4.18-2.421 1.012-5.054 1.281-7.828 1.434-2.125.117-4.254.195-6.383.238-.535.012-1.058.152-1.43.426-.37.273-.538.527-.769.777-1.172 1.281-3.508 3.535-4.781 4.77-.008-1.493-.02-3.297 0-4.961.008-.512-.11-1.035-.402-1.45-.293-.414-.696-.664-1.082-.843-1.13-.524-2.606-.922-3.246-1.324-2.239-1.407-3.508-3.516-4.262-6.141-.988-3.434-1.176-6.969-.883-10.567.156-1.867.426-3.738.766-5.593.71-3.91 2.945-6.371 6.5-8.004 2.246-1.031 4.644-1.54 7.171-1.848a34.192 34.192 0 0 1 5.172-.226zM26.156 10c-.824 0-1.625.094-2.402.266-.535.125-.875.66-.754 1.199s.66.875 1.2.754A8.737 8.737 0 0 1 26.155 12a8.805 8.805 0 0 1 8.82 8.816c0 .676-.074 1.332-.218 1.965a1 1 0 0 0 .754 1.196 1.001 1.001 0 0 0 1.195-.758c.176-.774.27-1.574.27-2.403 0-5.96-4.856-10.816-10.82-10.816zm-9.976 2.004a1.901 1.901 0 0 0-.508.043c-1.817.402-3.621 1.719-3.672 4.07.05.328.047.68.168.977.594 1.453 1.11 2.953 1.852 4.328 3.613 6.68 9.078 11.324 16.043 14.273.832.352 1.69.426 2.53.075 1.157-.48 2.137-1.223 2.79-2.29.894-1.464.906-2.48-.567-3.562-.964-.711-1.914-1.441-2.89-2.137-1.488-1.054-3.098-1.238-4.207.614-.059.093-.145.171-.219.25-.57.605-1.27.753-2.012.449-2.816-1.16-4.992-3.032-6.304-5.817-.774-1.636-.563-2.457.882-3.547.145-.105.282-.218.414-.34.633-.578.801-1.265.426-2.042a15.99 15.99 0 0 0-3.406-4.72c-.387-.366-.828-.597-1.32-.624zm9.96.996c-.44 0-.878.035-1.308.11a1.003 1.003 0 0 0-.637 1.64c.239.277.614.406.973.328.312-.05.64-.078.973-.078C29.39 15 32 17.61 32 20.86c0 .331-.027.66-.078.972-.078.36.05.734.328.973a1.003 1.003 0 1 0 1.64-.637c.075-.43.11-.867.11-1.309C34 16.531 30.469 13 26.14 13zM26 16a1.006 1.006 0 0 0-.879.496 1.01 1.01 0 0 0 0 1.008c.184.312.52.5.879.496 1.668 0 3 1.332 3 3-.004.36.184.695.496.879.313.18.695.18 1.008 0 .312-.184.5-.52.496-.879 0-2.75-2.25-5-5-5z"
    id="surface1"/>
  <metadata>
    <rdf:RDF xmlns:rdf="http://www.w3.org/1999/02/22-rdf-syntax-ns#">
    </rdf:RDF>
  </metadata>
</svg>
