<?xml version="1.0" encoding="UTF-8" standalone="no"?>
<!DOCTYPE svg PUBLIC "-//W3C//DTD SVG 1.1//EN" "http://www.w3.org/Graphics/SVG/1.1/DTD/svg11.dtd">
<svg width="100%" height="100%" viewBox="0 0 250 250" version="1.1" xmlns="http://www.w3.org/2000/svg"
     xml:space="preserve"
     style="fill-rule:evenodd;clip-rule:evenodd;stroke-linejoin:round;stroke-miterlimit:2;">
    <g transform="matrix(0.815905,0,0,0.815905,23.0119,27.3728)">
        <path
            d="M183.421,28.081C183.421,22.987 179.285,18.851 174.19,18.851L75.81,18.851C70.715,18.851 66.579,22.987 66.579,28.081L66.579,211.229C66.579,216.323 70.715,220.459 75.81,220.459L174.19,220.459C179.285,220.459 183.421,216.323 183.421,211.229L183.421,28.081ZM125,203.623C128.443,203.623 131.238,206.418 131.238,209.861C131.238,213.304 128.443,216.1 125,216.1C121.557,216.1 118.762,213.304 118.762,209.861C118.762,206.418 121.557,203.623 125,203.623ZM177.872,34.243L72.128,34.243L72.128,199.433L177.872,199.433L177.872,34.243Z"
            style="fill:rgb(250,250,250);"/>
        <g transform="matrix(1,0,0,1,-2.0952,5.07212)">
            <circle cx="127.095" cy="104.745" r="20.255" style="fill:rgb(250,250,250);"/>
        </g>
        <path
            d="M91.627,160.367C91.687,148.127 106.618,138.203 125,138.203C143.419,138.203 158.373,148.167 158.373,160.439L158.373,189.979L91.627,189.979L91.627,160.439L91.627,160.367Z"
            style="fill:rgb(250,250,250);"/>
    </g>
</svg>
