<?xml version="1.0" encoding="utf-8"?>
<!-- Generator: Adobe Illustrator 16.0.0, SVG Export Plug-In . SVG Version: 6.00 Build 0)  -->
<!DOCTYPE svg PUBLIC "-//W3C//DTD SVG 1.1 Tiny//EN" "http://www.w3.org/Graphics/SVG/1.1/DTD/svg11-tiny.dtd" [
	<!ENTITY ns_extend "http://ns.adobe.com/Extensibility/1.0/">
	<!ENTITY ns_ai "http://ns.adobe.com/AdobeIllustrator/10.0/">
	<!ENTITY ns_graphs "http://ns.adobe.com/Graphs/1.0/">
	<!ENTITY ns_vars "http://ns.adobe.com/Variables/1.0/">
	<!ENTITY ns_imrep "http://ns.adobe.com/ImageReplacement/1.0/">
	<!ENTITY ns_sfw "http://ns.adobe.com/SaveForWeb/1.0/">
	<!ENTITY ns_custom "http://ns.adobe.com/GenericCustomNamespace/1.0/">
	<!ENTITY ns_adobe_xpath "http://ns.adobe.com/XPath/1.0/">
]>
<svg version="1.1" baseProfile="tiny" id="Ebene_1" xmlns:x="&ns_extend;" xmlns:i="&ns_ai;" xmlns:graph="&ns_graphs;"
	 xmlns="http://www.w3.org/2000/svg" xmlns:xlink="http://www.w3.org/1999/xlink" x="0px" y="0px" width="32px" height="32px"
	 viewBox="0 0 32 32" xml:space="preserve">
<metadata>
	<sfw  xmlns="&ns_sfw;">
		<slices></slices>
		<sliceSourceBounds  width="32" height="32" y="-437.66" x="579.482" bottomLeftOrigin="true"></sliceSourceBounds>
	</sfw>
</metadata>
<g>
	<path fill="#663399" d="M1.324,30.934c-0.357-2.492-0.662-4.943-0.926-7.344C0.133,21.189,0,18.748,0,16.268
		c0-2.482,0.133-5.027,0.398-7.602c0.264-2.574,0.568-5.107,0.926-7.6c2.467-0.348,4.893-0.615,7.273-0.799
		C10.979,0.092,13.398,0,15.865,0c2.469,0,4.934,0.092,7.407,0.268c2.467,0.184,4.934,0.451,7.406,0.799
		c0.352,2.492,0.662,4.984,0.926,7.467C31.87,11.025,32,13.518,32,16s-0.131,4.975-0.396,7.467
		c-0.264,2.482-0.574,4.975-0.926,7.467c-2.473,0.348-4.893,0.615-7.273,0.799C21.024,31.896,18.598,32,16.131,32
		c-2.467,0-4.934-0.104-7.4-0.268C6.258,31.549,3.791,31.281,1.324,30.934z"/>
</g>
<path fill="#FFFFFF" d="M28.477,17.709l-1.786-7.082c0.001-0.001,0.003-0.002,0.004-0.003c0.695-0.579,0.79-1.611,0.211-2.307
	c-0.579-0.695-1.612-0.791-2.307-0.211c-0.14,0.117-0.283,0.226-0.426,0.339C16.78,1.133,11.351,3.036,9.317,4.233
	c-3.534,2.082-5.334,6.629-4.48,10.938c-0.677,0.04-1.094,0.042-1.161,0.042c-0.015,0.001-0.014,0-0.021,0
	c-0.898,0-1.631,0.725-1.639,1.624c-0.007,0.898,0.709,1.631,1.604,1.649l3.181,6.601c1.032,3.031,6.722,3.838,12.707,1.799
	C25.495,24.85,29.51,20.74,28.477,17.709z M6.655,15.02c-0.811-3.632,0.649-7.492,3.585-9.221c3.418-2.015,7.911-0.648,12.45,3.738
	C17.053,13.37,10.413,14.616,6.655,15.02z M15.334,24.787c-0.149,0.068-0.29,0.125-0.42,0.168c-0.528,0.18-1.005,0.17-1.43-0.032
	c-0.425-0.203-0.757-0.655-0.997-1.358l-2.076-6.098c0.232-0.129,0.468-0.232,0.709-0.314c0.233-0.08,0.48-0.141,0.742-0.18
	l1.96,5.76c0.077,0.227,0.152,0.404,0.223,0.535c0.071,0.131,0.146,0.227,0.223,0.285s0.163,0.09,0.255,0.09
	c0.092,0.003,0.2-0.019,0.323-0.061c0.055-0.02,0.114-0.042,0.177-0.072c0.063-0.029,0.123-0.061,0.179-0.098
	c0.177,0.273,0.314,0.555,0.411,0.84c0.021,0.059,0.038,0.111,0.054,0.158c0.016,0.049,0.028,0.104,0.034,0.166
	C15.607,24.65,15.484,24.721,15.334,24.787z M17.571,24.051c-0.254,0.087-0.516,0.15-0.784,0.193
	c-0.134-0.256-0.245-0.516-0.334-0.779c-0.09-0.264-0.161-0.541-0.214-0.832c0.238-0.131,0.481-0.238,0.729-0.323
	c0.247-0.084,0.508-0.147,0.785-0.192c0.135,0.264,0.246,0.523,0.334,0.779c0.092,0.271,0.164,0.548,0.214,0.832
	C18.055,23.861,17.811,23.969,17.571,24.051z M20.248,23.141c-0.247,0.084-0.495,0.143-0.743,0.178L16.776,15.3
	c0.218-0.123,0.451-0.227,0.697-0.311c0.248-0.084,0.498-0.146,0.754-0.184l2.729,8.018C20.731,22.951,20.495,23.057,20.248,23.141z
	 M23.492,22.036c-0.24,0.081-0.503,0.146-0.784,0.192l-2.557-2.447l0.398-3.146c0.254-0.135,0.518-0.248,0.791-0.342
	c0.262-0.089,0.523-0.154,0.785-0.194l-0.467,3.083l2.624,2.511C24.016,21.832,23.752,21.947,23.492,22.036z"/>
</svg>
