<?xml version="1.0" standalone="no"?>
<!DOCTYPE svg PUBLIC "-//W3C//DTD SVG 20010904//EN"
 "http://www.w3.org/TR/2001/REC-SVG-20010904/DTD/svg10.dtd">
<svg version="1.0" xmlns="http://www.w3.org/2000/svg"
 width="700.000000pt" height="700.000000pt" viewBox="0 0 700.000000 700.000000"
 preserveAspectRatio="xMidYMid meet">
<metadata>
Created by potrace 1.11, written by Peter Selinger 2001-2013
</metadata>
<g transform="translate(0.000000,700.000000) scale(0.100000,-0.100000)"
fill="#000000" stroke="none">
<path d="M2918 6995 c-2 -1 -95 -6 -208 -9 -247 -9 -397 -16 -620 -31 -25 -1
-97 -6 -160 -10 -63 -4 -127 -8 -143 -10 -15 -2 -64 -7 -110 -10 -45 -4 -95
-8 -112 -10 -16 -1 -64 -5 -105 -9 -75 -6 -143 -13 -210 -21 -19 -3 -60 -7
-90 -10 -30 -3 -71 -7 -90 -10 -19 -2 -57 -7 -85 -10 -27 -3 -66 -8 -85 -10
-19 -2 -57 -7 -85 -10 -63 -7 -282 -35 -315 -40 -14 -2 -50 -7 -80 -10 -30 -3
-64 -8 -75 -10 -11 -2 -27 -4 -37 -4 -16 -1 -21 -19 -32 -106 -3 -16 -20 -151
-40 -300 -20 -148 -39 -292 -42 -320 -3 -27 -8 -63 -10 -80 -3 -16 -7 -50 -10
-75 -2 -25 -6 -61 -9 -80 -2 -19 -7 -64 -11 -100 -3 -36 -7 -72 -9 -80 -2 -8
-6 -46 -10 -85 -4 -38 -8 -81 -10 -95 -7 -46 -32 -281 -51 -477 -3 -32 -7 -72
-9 -89 -2 -17 -7 -78 -10 -135 -4 -57 -8 -114 -10 -126 -2 -13 -7 -78 -10
-145 -4 -68 -8 -138 -10 -155 -26 -226 -26 -1363 0 -1738 2 -27 6 -97 10 -155
4 -58 8 -121 10 -140 1 -19 6 -73 10 -120 4 -47 8 -98 10 -115 2 -16 6 -59 10
-95 3 -36 7 -81 10 -100 2 -19 6 -57 9 -85 4 -27 8 -70 11 -95 3 -25 8 -65 11
-90 2 -25 7 -61 9 -80 3 -19 7 -60 10 -90 3 -30 8 -66 10 -80 2 -14 7 -50 10
-80 3 -30 8 -66 10 -80 2 -14 7 -54 10 -90 3 -36 8 -72 10 -80 2 -8 6 -40 10
-71 3 -31 7 -66 10 -77 2 -12 6 -47 10 -79 3 -32 8 -65 10 -73 2 -8 6 -37 9
-65 3 -27 8 -67 11 -87 12 -90 17 -119 30 -217 8 -58 15 -105 15 -106 0 -3
194 -29 298 -41 29 -3 61 -7 71 -9 16 -3 63 -9 156 -20 17 -2 57 -6 90 -10 33
-3 74 -8 90 -10 17 -2 57 -7 90 -10 33 -3 74 -7 90 -10 17 -2 62 -6 100 -10
39 -4 84 -8 101 -10 17 -2 66 -7 110 -10 43 -4 95 -8 114 -10 19 -2 71 -7 115
-10 44 -3 98 -8 120 -10 54 -6 282 -20 490 -30 61 -3 139 -8 175 -10 401 -27
1591 -26 2055 0 175 10 275 16 335 20 36 2 110 7 165 10 55 3 120 8 145 10 42
4 68 6 233 20 34 3 80 8 102 10 22 3 67 7 100 10 33 3 78 8 100 10 22 3 67 7
100 11 66 6 449 50 505 58 19 3 110 15 203 27 120 16 167 26 168 36 1 7 2 16
3 21 2 6 10 63 21 142 2 14 6 43 9 65 3 22 8 58 11 80 2 22 13 105 24 185 29
216 34 259 45 365 4 33 8 69 11 80 2 11 6 47 10 80 3 33 8 69 10 80 2 11 7 49
10 85 6 67 9 97 21 190 4 30 8 66 9 80 2 14 6 57 10 95 3 39 8 81 10 95 2 14
7 57 10 95 3 39 8 84 10 100 2 17 7 71 10 120 4 50 8 106 10 125 2 19 7 87 10
150 4 63 8 131 10 150 26 283 26 1388 0 1745 -2 28 -6 97 -10 155 -4 58 -8
125 -10 150 -2 25 -7 79 -10 120 -3 41 -8 89 -10 105 -4 26 -11 101 -20 220
-1 17 -5 53 -9 80 -3 28 -9 73 -11 100 -3 28 -7 66 -10 85 -2 19 -7 58 -10 85
-3 28 -12 106 -20 175 -8 69 -17 148 -20 175 -3 28 -8 61 -10 75 -2 14 -7 50
-10 80 -4 30 -8 64 -9 75 -4 28 -16 122 -22 170 -3 22 -7 51 -9 65 -2 14 -7
49 -10 79 -4 30 -8 61 -10 70 -1 9 -6 39 -9 66 -13 99 -27 200 -31 220 -2 11
-4 25 -4 31 -1 6 -41 16 -93 23 -51 7 -104 14 -118 16 -50 8 -214 28 -319 40
-30 4 -62 8 -72 10 -9 2 -50 7 -91 10 -40 4 -84 9 -98 10 -23 3 -67 7 -190 20
-25 2 -90 9 -145 14 -55 6 -134 13 -175 16 -41 3 -86 8 -100 10 -14 2 -72 6
-130 10 -58 4 -121 8 -140 10 -19 2 -91 7 -160 11 -69 4 -143 8 -165 9 -22 2
-119 6 -215 10 -96 4 -200 9 -230 11 -68 5 -1347 13 -1352 9z"/>
</g>
</svg>
